<svg id="Capa_1" enable-background="new 0 0 512 512" height="512" viewBox="0 0 512 512" width="512" xmlns="http://www.w3.org/2000/svg"><g><g><path d="m304.462 169.008h-96.924c-2.209 0-4 1.791-4 4v58.956c0 2.209 1.791 4 4 4h96.924c2.209 0 4-1.791 4-4v-58.956c0-2.209-1.791-4-4-4z" fill="#ffcbbe"/></g><g><path d="m304.462 169.008h-18.352v66.956h18.352c2.209 0 4-1.791 4-4v-58.956c0-2.209-1.791-4-4-4z" fill="#fdad9d"/></g><g><path d="m299.238 231.838h-86.477c-84.291 0-152.622 68.331-152.622 152.622v117.54c0 5.523 4.477 10 10 10h371.72c5.523 0 10-4.477 10-10v-117.54c.001-84.291-68.33-152.622-152.621-152.622z" fill="#f1f4f6"/></g><g><path d="m299.196 231.838h-52.462c84.314 0 152.664 68.35 152.664 152.664v117.495c0 5.524-4.478 10.003-10.003 10.003h52.462c5.524 0 10.003-4.478 10.003-10.003v-117.495c0-84.314-68.35-152.664-152.664-152.664z" fill="#dfeaef"/></g><path d="m336.399 96.425h-.008c-3.606 0-6.937 1.155-9.666 3.1v-21.667-4.564c0-12.706-10.3-23.006-23.006-23.006h-95.438c-12.706 0-23.006 10.3-23.006 23.006v3.092 23.139c-2.729-1.945-6.059-3.1-9.666-3.1h-.008c-6.99 0-12.656 5.666-12.656 12.656v14.638c0 9.786 7.933 17.719 17.719 17.719h4.812c1.52 18.768 11.94 35.804 28.208 45.66l28.47 17.247c8.511 5.156 19.182 5.156 27.694 0l28.47-17.247c16.268-9.856 26.689-26.892 28.208-45.66h4.812c9.786 0 17.719-7.933 17.719-17.719v-14.638c-.001-6.989-5.668-12.656-12.658-12.656z" fill="#ffcbbe"/><g><path d="m245.077 272.27-18.734 128.678h60.619l-18.735-128.678z" fill="#da2ea2"/></g><g><path d="m268.227 272.271h-13.511l18.734 128.677h13.512z" fill="#b9147d"/></g><g><path d="m304.284 222.141-41.302 10.434c-3.126.79-10.839.79-13.964 0l-41.302-10.434c-4.275-1.08-8.424 2.151-8.424 6.56v37.999c0 3.623 3.77 6.014 7.047 4.47l46.883-22.089c1.157-.545 4.397-.545 5.554 0l46.883 22.089c3.277 1.544 7.047-.847 7.047-4.47v-37.999c.002-4.409-4.147-7.64-8.422-6.56z" fill="#dfeaef"/></g><g><g><path d="m304.284 222.141-9.274 2.343v41.668l10.651 5.018c3.277 1.544 7.047-.847 7.047-4.47v-37.999c0-4.409-4.149-7.64-8.424-6.56z" fill="#d0e2e7"/></g></g><g><path d="m261.316 277.247 16.852-12.244c2.781-2.021 3.945-5.602 2.882-8.871l-6.437-19.811c-1.062-3.269-4.109-5.483-7.546-5.483h-20.831c-3.438 0-6.484 2.213-7.546 5.483l-6.437 19.811c-1.062 3.269.101 6.851 2.882 8.871l16.852 12.244c2.782 2.021 6.548 2.021 9.329 0z" fill="#da2ea2"/></g><g><path d="m281.051 256.131-6.436-19.808c-1.063-3.27-4.11-5.484-7.548-5.484h-11.915l6.434 19.801c1.063 3.27-.101 6.853-2.883 8.874l-15.561 11.306 8.847 6.428c2.782 2.021 6.549 2.021 9.33 0l16.85-12.242c2.78-2.023 3.944-5.605 2.882-8.875z" fill="#b9147d"/></g><path d="m336.399 96.425h-.008c-3.606 0-6.937 1.155-9.666 3.1v-21.667-4.564c0-12.706-10.3-23.006-23.006-23.006h-4.001v20.843 58.815c0 20.62-10.773 39.741-28.409 50.425l-28.47 17.248c-2.189 1.326-4.521 2.305-6.922 2.949l6.236 3.778c8.511 5.156 19.183 5.156 27.694 0l28.47-17.247c16.268-9.856 26.689-26.892 28.208-45.66h4.812c9.786 0 17.719-7.933 17.719-17.719v-14.638c0-6.99-5.667-12.657-12.657-12.657z" fill="#fdad9d"/><g><path d="m251.126 0c-36.369 0-65.852 29.483-65.852 65.852v10.535c0-9.109 7.385-16.494 16.494-16.494h108.463c9.109 0 16.494 7.385 16.494 16.494v-10.535c0-36.369-29.482-65.852-65.851-65.852z" fill="#ffe07d"/></g><g><path d="m262.974.053c21.766 10.746 36.744 33.155 36.744 59.072v.768h10.514c9.109 0 16.494 7.385 16.494 16.494v-10.535c-.001-35.665-28.357-64.687-63.752-65.799z" fill="#ffd064"/></g><g><path d="m345.695 239.057-85.364 147.854c-1.925 3.334-6.738 3.334-8.663 0l-85.364-147.854c-24.879 7.949-46.986 22.101-64.499 40.642l25.645 48.886c13.108 24.987 19.956 52.782 19.956 80.998v102.417h217.185v-102.417c0-28.216 6.848-56.011 19.956-80.998l25.645-48.886c-17.511-18.541-39.618-32.693-64.497-40.642z" fill="#5766cb"/></g><g><path d="m386.94 324.026 23.254-44.327c-17.513-18.541-39.62-32.692-64.499-40.642l-11.663 20.2c23.139 16.158 41.588 38.561 52.908 64.769z" fill="#3d4fc3"/></g><g><circle cx="289.644" cy="112.612" fill="#aa7a63" r="9.133"/></g><g><circle cx="222.356" cy="112.612" fill="#aa7a63" r="9.133"/></g><g><path d="m256.652 170.768c-7.341 0-14.394-2.231-20.394-6.453-3.389-2.383-4.203-7.063-1.819-10.452 2.385-3.388 7.065-4.203 10.453-1.819 3.459 2.433 7.526 3.72 11.761 3.72s8.301-1.286 11.761-3.72c3.389-2.382 8.069-1.571 10.453 1.819 2.384 3.389 1.569 8.069-1.819 10.452-6.002 4.221-13.054 6.453-20.396 6.453z" fill="#d38678"/></g><g><path d="m328.403 436.827h-46.46c-3.3 0-5.975-2.675-5.975-5.975v-18.022c0-3.3 2.675-5.975 5.975-5.975h46.46c3.3 0 5.975 2.675 5.975 5.975v18.023c0 3.299-2.675 5.974-5.975 5.974z" fill="#f1f4f6"/></g><g><path d="m328.401 406.856h-4.46v13.559c0 3.3-2.676 5.976-5.976 5.976h-41.996v4.46c0 3.301 2.676 5.976 5.976 5.976h46.456c3.301 0 5.976-2.676 5.976-5.976v-18.019c.001-3.301-2.675-5.976-5.976-5.976z" fill="#dfeaef"/></g></g></svg>