<svg xmlns="http://www.w3.org/2000/svg" xmlns:xlink="http://www.w3.org/1999/xlink" width="725" height="290" viewBox="0 0 725 290">
  <defs>
    <clipPath id="clip-path">
      <rect id="Rectangle_1" data-name="Rectangle 1" width="128" height="128" transform="translate(724 304)" fill="#fff" opacity="0.4"/>
    </clipPath>
    <clipPath id="clip-path-2">
      <path id="Path_23" data-name="Path 23" d="M762.8,447.64v39.532l396.08,41.891V447.64Z" fill="#7ed7ff"/>
    </clipPath>
  </defs>
  <g id="netwila-logo" transform="translate(-321 -239)">
    <g id="Mask_Group_1" data-name="Mask Group 1" transform="translate(-105.82 -65)" clip-path="url(#clip-path)">
      <path id="Path_5" data-name="Path 5" d="M187.285,147.155a40.127,40.127,0,1,1-40.126-40.125,40.127,40.127,0,0,1,40.126,40.125Z" transform="translate(640.803 220.843)" fill="#bfebff"/>
      <path id="Path_6" data-name="Path 6" d="M295.127,147.155A40.129,40.129,0,0,1,255,187.285V107.03a40.127,40.127,0,0,1,40.127,40.125Z" transform="translate(532.96 220.842)" fill="#7ed7ff"/>
      <path id="Path_7" data-name="Path 7" d="M187.285,201.072a40.127,40.127,0,0,1-80.255,0,20.064,20.064,0,1,0,40.127,0,20.064,20.064,0,1,1,40.127,0Z" transform="translate(640.803 166.925)" fill="#435d7a"/>
      <path id="Path_8" data-name="Path 8" d="M295.127,201.072A40.129,40.129,0,0,1,255,241.2V201.07a20.064,20.064,0,1,1,40.128,0Z" transform="translate(532.96 166.925)" fill="#2d3e53"/>
      <path id="Path_9" data-name="Path 9" d="M324.068,237.885A4.068,4.068,0,0,0,320,241.953v1.627a4.068,4.068,0,1,0,8.136,0v-1.627a4.068,4.068,0,0,0-4.068-4.068Z" transform="translate(485.587 125.474)" fill="#7ed7ff"/>
      <path id="Path_10" data-name="Path 10" d="M164.068,237.885A4.068,4.068,0,0,0,160,241.953v1.627a4.068,4.068,0,1,0,8.136,0v-1.627a4.068,4.068,0,0,0-4.068-4.068Z" transform="translate(602.197 125.474)" fill="#2d3e53"/>
      <path id="Path_11" data-name="Path 11" d="M248.136,25.218v4.475a4.068,4.068,0,0,1-8.136,0V25.218a4.068,4.068,0,0,1,8.136,0Z" transform="translate(543.892 283.433)" fill="#bfebff"/>
      <path id="Path_12" data-name="Path 12" d="M259.068,25.218v4.475A4.069,4.069,0,0,1,255,33.76V21.15a4.068,4.068,0,0,1,4.068,4.068Z" transform="translate(532.96 283.433)" fill="#7ed7ff"/>
      <path id="Path_13" data-name="Path 13" d="M248.136,446.418v4.475a4.068,4.068,0,0,1-8.136,0v-4.475a4.068,4.068,0,0,1,8.136,0Z" transform="translate(543.892 -23.543)" fill="#bfebff"/>
      <path id="Path_14" data-name="Path 14" d="M259.068,446.418v4.475A4.068,4.068,0,0,1,255,454.96V442.35A4.069,4.069,0,0,1,259.068,446.418Z" transform="translate(532.96 -23.543)" fill="#7ed7ff"/>
      <path id="Path_15" data-name="Path 15" d="M450.9,240h-4.475a4.068,4.068,0,0,0,0,8.136H450.9a4.068,4.068,0,1,0,0-8.136Z" transform="translate(396.414 123.932)" fill="#7ed7ff"/>
      <path id="Path_16" data-name="Path 16" d="M29.688,240H25.214a4.068,4.068,0,0,0,0,8.136h4.475a4.068,4.068,0,1,0,0-8.136Z" transform="translate(703.396 123.932)" fill="#bfebff"/>
      <path id="Path_17" data-name="Path 17" d="M390.031,95.355l3.164-3.164a4.068,4.068,0,1,0-5.753-5.752L384.278,89.6a4.068,4.068,0,1,0,5.753,5.752Z" transform="translate(439.609 236.718)" fill="#2d3e53"/>
      <path id="Path_18" data-name="Path 18" d="M89.6,384.278l-3.164,3.164a4.068,4.068,0,1,0,5.753,5.752l3.164-3.164a4.068,4.068,0,1,0-5.753-5.752Z" transform="translate(656.678 19.649)" fill="#435d7a"/>
      <path id="Path_19" data-name="Path 19" d="M390.031,384.277a4.068,4.068,0,1,0-5.753,5.752l3.164,3.164a4.068,4.068,0,1,0,5.753-5.752Z" transform="translate(439.609 19.649)" fill="#2d3e53"/>
      <path id="Path_20" data-name="Path 20" d="M92.191,86.439a4.068,4.068,0,1,0-5.753,5.752L89.6,95.355A4.069,4.069,0,1,0,95.355,89.6Z" transform="translate(656.679 236.718)" fill="#435d7a"/>
      <circle id="Ellipse_1" data-name="Ellipse 1" cx="4.339" cy="4.339" r="4.339" transform="translate(799.746 307.425) rotate(15.009)" fill="#2d3e53"/>
      <circle id="Ellipse_2" data-name="Ellipse 2" cx="4.339" cy="4.339" r="4.339" transform="translate(770.105 417.975) rotate(15.009)" fill="#2d3e53"/>
      <circle id="Ellipse_1-2" data-name="Ellipse 1" cx="4.339" cy="4.339" r="4.339" transform="translate(839.147 333.481) rotate(60.009)" fill="#2d3e53"/>
      <circle id="Ellipse_2-2" data-name="Ellipse 2" cx="4.339" cy="4.339" r="4.339" transform="translate(740.017 390.694) rotate(60.009)" fill="#2d3e53"/>
      <circle id="Ellipse_1-3" data-name="Ellipse 1" cx="4.339" cy="4.339" r="4.339" transform="translate(848.584 379.767) rotate(105.009)" fill="#2d3e53"/>
      <circle id="Ellipse_2-3" data-name="Ellipse 2" cx="4.339" cy="4.339" r="4.339" transform="translate(738.034 350.127) rotate(105.009)" fill="#2d3e53"/>
      <circle id="Ellipse_1-4" data-name="Ellipse 1" cx="4.339" cy="4.339" r="4.339" transform="translate(822.527 419.169) rotate(150.009)" fill="#2d3e53"/>
      <circle id="Ellipse_2-4" data-name="Ellipse 2" cx="4.339" cy="4.339" r="4.339" transform="translate(765.314 320.039) rotate(150.009)" fill="#2d3e53"/>
      <circle id="Ellipse_1-5" data-name="Ellipse 1" cx="4.339" cy="4.339" r="4.339" transform="translate(815.021 312.518) rotate(30)" fill="#7ed7ff"/>
      <circle id="Ellipse_2-5" data-name="Ellipse 2" cx="4.339" cy="4.339" r="4.339" transform="translate(757.801 411.627) rotate(30)" fill="#7ed7ff"/>
      <circle id="Ellipse_1-6" data-name="Ellipse 1" cx="4.339" cy="4.339" r="4.339" transform="translate(846.338 347.876) rotate(75)" fill="#7ed7ff"/>
      <circle id="Ellipse_2-6" data-name="Ellipse 2" cx="4.339" cy="4.339" r="4.339" transform="translate(735.796 377.496) rotate(75)" fill="#7ed7ff"/>
      <circle id="Ellipse_1-7" data-name="Ellipse 1" cx="4.339" cy="4.339" r="4.339" transform="translate(843.482 395.022) rotate(120)" fill="#7ed7ff"/>
      <circle id="Ellipse_2-7" data-name="Ellipse 2" cx="4.339" cy="4.339" r="4.339" transform="translate(744.372 337.801) rotate(120)" fill="#7ed7ff"/>
      <circle id="Ellipse_1-8" data-name="Ellipse 1" cx="4.339" cy="4.339" r="4.339" transform="translate(808.123 426.338) rotate(165)" fill="#7ed7ff"/>
      <circle id="Ellipse_2-8" data-name="Ellipse 2" cx="4.339" cy="4.339" r="4.339" transform="translate(778.503 315.796) rotate(165)" fill="#7ed7ff"/>
    </g>
    <path id="Path_21" data-name="Path 21" d="M59.95,0Q52.58-13.09,44-25.85A262.713,262.713,0,0,0,25.74-49.94V0H8.8V-76.23H22.77q3.63,3.63,8.03,8.91t8.965,11.275q4.565,5.995,9.075,12.43T57.31-31.24V-76.23H74.36V0ZM88.11-28.49a35.384,35.384,0,0,1,2.365-13.475A28.89,28.89,0,0,1,96.69-51.59a25.855,25.855,0,0,1,8.855-5.83A27.725,27.725,0,0,1,115.83-59.4q12.32,0,19.47,7.535T142.45-29.7q0,1.43-.11,3.135t-.22,3.025H104.94a10.892,10.892,0,0,0,4.73,8.03q4.18,2.97,11.22,2.97a47.365,47.365,0,0,0,8.855-.825,33.426,33.426,0,0,0,7.1-2.035l2.2,13.31a22.635,22.635,0,0,1-3.52,1.32,46.057,46.057,0,0,1-4.9,1.155q-2.695.5-5.775.825a57.783,57.783,0,0,1-6.16.33A36.464,36.464,0,0,1,105.105-.77,26.46,26.46,0,0,1,95.535-7.1a25.1,25.1,0,0,1-5.61-9.515A37.692,37.692,0,0,1,88.11-28.49Zm38.5-6.27a16.919,16.919,0,0,0-.715-4.07,10.162,10.162,0,0,0-1.87-3.52,9.956,9.956,0,0,0-3.19-2.53,10.393,10.393,0,0,0-4.785-.99,10.994,10.994,0,0,0-4.73.935,9.774,9.774,0,0,0-3.3,2.475,11.072,11.072,0,0,0-2.035,3.575,23.459,23.459,0,0,0-1.045,4.125Zm27.94-37.51,16.39-2.64v17.05h19.69v13.64H170.94v20.35a16.189,16.189,0,0,0,1.815,8.25q1.815,3.08,7.315,3.08a31.316,31.316,0,0,0,5.445-.5,28.064,28.064,0,0,0,5.115-1.375l2.31,12.76a46.63,46.63,0,0,1-6.6,2.09,38.457,38.457,0,0,1-8.91.88A29.331,29.331,0,0,1,166.32-.495a17.428,17.428,0,0,1-7.04-5.06,18.836,18.836,0,0,1-3.68-7.865,46.43,46.43,0,0,1-1.045-10.23Zm85.69,39.05q-2.2,8.36-4.675,16.61T230.34,0H217.58q-1.98-4.62-4.29-11T208.5-24.915q-2.475-7.535-5.06-15.95t-5-17h17.27q.88,3.96,1.925,8.635t2.2,9.625q1.155,4.95,2.42,9.955t2.585,9.625q1.43-4.84,2.8-9.9t2.64-9.955q1.265-4.895,2.42-9.46t2.035-8.525h11.88q.88,3.96,1.98,8.525t2.31,9.46q1.21,4.895,2.53,9.955t2.75,9.9q1.32-4.62,2.64-9.625T261.3-39.6q1.155-4.95,2.2-9.625t1.925-8.635h17.05q-2.42,8.58-5,17t-5.06,15.95q-2.475,7.53-4.84,13.91T263.23,0H250.47q-2.75-8.36-5.39-16.61t-4.84-16.61ZM307.67,0H291.28V-57.86h16.39Zm1.54-74.58a9,9,0,0,1-2.915,7.1A10.025,10.025,0,0,1,299.42-64.9a10.025,10.025,0,0,1-6.875-2.585,9,9,0,0,1-2.915-7.1,9,9,0,0,1,2.915-7.1,10.025,10.025,0,0,1,6.875-2.585A10.025,10.025,0,0,1,306.3-81.68a9,9,0,0,1,2.915,7.1ZM346.17,1.1a40.947,40.947,0,0,1-11.6-1.54,17.19,17.19,0,0,1-7.04-4.015,13.32,13.32,0,0,1-3.52-6.27,33.832,33.832,0,0,1-.935-8.3V-82.72l16.39-2.64v63.03a21.6,21.6,0,0,0,.33,3.96,6.833,6.833,0,0,0,1.265,2.97,6.715,6.715,0,0,0,2.7,1.98,14.77,14.77,0,0,0,4.73.99Zm35.42-12.54q2.42,0,4.62-.11a32.143,32.143,0,0,0,3.52-.33V-24.31q-.99-.22-2.97-.44a33.076,33.076,0,0,0-3.63-.22,32.485,32.485,0,0,0-4.345.275,11.351,11.351,0,0,0-3.575,1.045,6.134,6.134,0,0,0-2.42,2.09,5.824,5.824,0,0,0-.88,3.3q0,3.85,2.585,5.335a14.285,14.285,0,0,0,7.1,1.485ZM380.27-59.4a37.956,37.956,0,0,1,12.1,1.65,18.791,18.791,0,0,1,7.755,4.73,17.386,17.386,0,0,1,4.125,7.48,36.9,36.9,0,0,1,1.21,9.79v34.1q-3.52.77-9.79,1.815A94.074,94.074,0,0,1,380.49,1.21,48.126,48.126,0,0,1,370.315.22a22.083,22.083,0,0,1-7.865-3.245,14.849,14.849,0,0,1-5.06-5.885,20.313,20.313,0,0,1-1.76-8.91,16.884,16.884,0,0,1,2.035-8.58,15.661,15.661,0,0,1,5.445-5.61,24.606,24.606,0,0,1,7.81-3.025,43.813,43.813,0,0,1,9.13-.935,51.834,51.834,0,0,1,5.665.275,25.216,25.216,0,0,1,4.015.715v-1.54a9.07,9.07,0,0,0-2.53-6.71q-2.53-2.53-8.8-2.53a56.033,56.033,0,0,0-8.25.6,35.392,35.392,0,0,0-7.04,1.7l-2.09-13.2q1.43-.44,3.575-.935t4.675-.88q2.53-.385,5.335-.66T380.27-59.4Z" transform="translate(476.18 468)" fill="#2d3e53"/>
    <g id="Mask_Group_2" data-name="Mask Group 2" transform="translate(-277.82 -65)" opacity="0.2" clip-path="url(#clip-path-2)">
      <path id="Path_22" data-name="Path 22" d="M59.95,0Q52.58-13.09,44-25.85A262.713,262.713,0,0,0,25.74-49.94V0H8.8V-76.23H22.77q3.63,3.63,8.03,8.91t8.965,11.275q4.565,5.995,9.075,12.43T57.31-31.24V-76.23H74.36V0ZM88.11-28.49a35.384,35.384,0,0,1,2.365-13.475A28.89,28.89,0,0,1,96.69-51.59a25.855,25.855,0,0,1,8.855-5.83A27.725,27.725,0,0,1,115.83-59.4q12.32,0,19.47,7.535T142.45-29.7q0,1.43-.11,3.135t-.22,3.025H104.94a10.892,10.892,0,0,0,4.73,8.03q4.18,2.97,11.22,2.97a47.365,47.365,0,0,0,8.855-.825,33.426,33.426,0,0,0,7.1-2.035l2.2,13.31a22.635,22.635,0,0,1-3.52,1.32,46.057,46.057,0,0,1-4.9,1.155q-2.695.5-5.775.825a57.783,57.783,0,0,1-6.16.33A36.464,36.464,0,0,1,105.105-.77,26.46,26.46,0,0,1,95.535-7.1a25.1,25.1,0,0,1-5.61-9.515A37.692,37.692,0,0,1,88.11-28.49Zm38.5-6.27a16.919,16.919,0,0,0-.715-4.07,10.162,10.162,0,0,0-1.87-3.52,9.956,9.956,0,0,0-3.19-2.53,10.393,10.393,0,0,0-4.785-.99,10.994,10.994,0,0,0-4.73.935,9.774,9.774,0,0,0-3.3,2.475,11.072,11.072,0,0,0-2.035,3.575,23.459,23.459,0,0,0-1.045,4.125Zm27.94-37.51,16.39-2.64v17.05h19.69v13.64H170.94v20.35a16.189,16.189,0,0,0,1.815,8.25q1.815,3.08,7.315,3.08a31.316,31.316,0,0,0,5.445-.5,28.064,28.064,0,0,0,5.115-1.375l2.31,12.76a46.63,46.63,0,0,1-6.6,2.09,38.457,38.457,0,0,1-8.91.88A29.331,29.331,0,0,1,166.32-.495a17.428,17.428,0,0,1-7.04-5.06,18.836,18.836,0,0,1-3.68-7.865,46.43,46.43,0,0,1-1.045-10.23Zm85.69,39.05q-2.2,8.36-4.675,16.61T230.34,0H217.58q-1.98-4.62-4.29-11T208.5-24.915q-2.475-7.535-5.06-15.95t-5-17h17.27q.88,3.96,1.925,8.635t2.2,9.625q1.155,4.95,2.42,9.955t2.585,9.625q1.43-4.84,2.8-9.9t2.64-9.955q1.265-4.895,2.42-9.46t2.035-8.525h11.88q.88,3.96,1.98,8.525t2.31,9.46q1.21,4.895,2.53,9.955t2.75,9.9q1.32-4.62,2.64-9.625T261.3-39.6q1.155-4.95,2.2-9.625t1.925-8.635h17.05q-2.42,8.58-5,17t-5.06,15.95q-2.475,7.53-4.84,13.91T263.23,0H250.47q-2.75-8.36-5.39-16.61t-4.84-16.61ZM307.67,0H291.28V-57.86h16.39Zm1.54-74.58a9,9,0,0,1-2.915,7.1A10.025,10.025,0,0,1,299.42-64.9a10.025,10.025,0,0,1-6.875-2.585,9,9,0,0,1-2.915-7.1,9,9,0,0,1,2.915-7.1,10.025,10.025,0,0,1,6.875-2.585A10.025,10.025,0,0,1,306.3-81.68a9,9,0,0,1,2.915,7.1ZM346.17,1.1a40.947,40.947,0,0,1-11.6-1.54,17.19,17.19,0,0,1-7.04-4.015,13.32,13.32,0,0,1-3.52-6.27,33.832,33.832,0,0,1-.935-8.3V-82.72l16.39-2.64v63.03a21.6,21.6,0,0,0,.33,3.96,6.833,6.833,0,0,0,1.265,2.97,6.715,6.715,0,0,0,2.7,1.98,14.77,14.77,0,0,0,4.73.99Zm35.42-12.54q2.42,0,4.62-.11a32.143,32.143,0,0,0,3.52-.33V-24.31q-.99-.22-2.97-.44a33.076,33.076,0,0,0-3.63-.22,32.485,32.485,0,0,0-4.345.275,11.351,11.351,0,0,0-3.575,1.045,6.134,6.134,0,0,0-2.42,2.09,5.824,5.824,0,0,0-.88,3.3q0,3.85,2.585,5.335a14.285,14.285,0,0,0,7.1,1.485ZM380.27-59.4a37.956,37.956,0,0,1,12.1,1.65,18.791,18.791,0,0,1,7.755,4.73,17.386,17.386,0,0,1,4.125,7.48,36.9,36.9,0,0,1,1.21,9.79v34.1q-3.52.77-9.79,1.815A94.074,94.074,0,0,1,380.49,1.21,48.126,48.126,0,0,1,370.315.22a22.083,22.083,0,0,1-7.865-3.245,14.849,14.849,0,0,1-5.06-5.885,20.313,20.313,0,0,1-1.76-8.91,16.884,16.884,0,0,1,2.035-8.58,15.661,15.661,0,0,1,5.445-5.61,24.606,24.606,0,0,1,7.81-3.025,43.813,43.813,0,0,1,9.13-.935,51.834,51.834,0,0,1,5.665.275,25.216,25.216,0,0,1,4.015.715v-1.54a9.07,9.07,0,0,0-2.53-6.71q-2.53-2.53-8.8-2.53a56.033,56.033,0,0,0-8.25.6,35.392,35.392,0,0,0-7.04,1.7l-2.09-13.2q1.43-.44,3.575-.935t4.675-.88q2.53-.385,5.335-.66T380.27-59.4Z" transform="translate(754 533)" fill="#7ed7ff"/>
    </g>
    <text id="Networked_Integrated_Logistics_Alliance" data-name="Networked Integrated Logistics Alliance" transform="translate(321 521)" fill="#707070" font-size="40" font-family="Ubuntu"><tspan x="0" y="0">Networked Integrated Logistics Alliance</tspan></text>
  </g>
</svg>
