<svg height="511pt" viewBox="-14 0 511 511.99994" width="511pt" xmlns="http://www.w3.org/2000/svg"><path d="m373.464844 289.238281v199.511719l-25.242188 8.414062c-3.988281 1.332032-6.140625 5.640626-4.8125 9.628907s5.640625 6.144531 9.625 4.8125l30.445313-10.148438c3.109375-1.035156 5.203125-3.941406 5.203125-7.21875v-205zm0 0" fill="#85453d"/><path d="m449.578125 289.238281v199.511719l25.238281 8.414062c3.988282 1.332032 6.144532 5.640626 4.816406 9.628907-1.328124 3.988281-5.640624 6.144531-9.628906 4.8125l-30.445312-10.148438c-3.105469-1.035156-5.203125-3.941406-5.203125-7.21875v-205zm0 0" fill="#60312c"/><path d="m69.003906 114.171875h15.222656v152.230469h-15.222656zm0 0" fill="#4f4f4f"/><path d="m304.960938 195.363281h106.558593v-15.222656h-106.558593c-12.59375 0-22.835938 10.242187-22.835938 22.832031 0 12.59375 10.242188 22.835938 22.835938 22.835938h30.445312c4.203125 0 7.609375-3.410156 7.609375-7.613282 0-4.203124-3.40625-7.609374-7.609375-7.609374h-30.445312c-4.199219 0-7.613282-3.414063-7.613282-7.613282 0-4.195312 3.414063-7.609375 7.613282-7.609375zm0 0" fill="#ff6337"/><path d="m137.507812 152.230469h-30.445312v60.890625l45.667969 30.445312v-30.445312zm0 0" fill="#7dd9ff"/><path d="m208.546875 213.121094h-30.445313l20.296876 60.894531h30.445312v-40.597656c0-11.164063-9.132812-20.296875-20.296875-20.296875zm0 0" fill="#353535"/><path d="m178.101562 213.121094h-71.039062v60.894531h91.335938v-40.597656c0-11.164063-9.132813-20.296875-20.296876-20.296875zm0 0" fill="#4f4f4f"/><path d="m259.289062 504.386719h30.449219v-32.472657l-106.5625-45.671874zm0 0" fill="#353535"/><path d="m15.722656 471.914062v32.472657h243.566406v-78.144531h-213.121093zm0 0" fill="#4f4f4f"/><path d="m143.257812 274.015625 116.03125 197.898437h30.449219v-197.898437zm0 0" fill="#9db55f"/><path d="m15.722656 274.015625h243.566406v197.898437h-243.566406zm0 0" fill="#b9d171"/><path d="m112.8125 274.015625 116.03125 106.558594h30.445312v-106.558594zm0 0" fill="#7dd9ff"/><path d="m228.84375 274.015625h-182.675781v106.558594h30.449219l30.445312-30.445313 30.445312 30.445313h30.445313l60.890625-60.890625zm0 0" fill="#a8e5ff"/><path d="m198.398438 319.683594-15.222657 30.445312 15.222657 30.445313h30.445312v-60.890625zm0 0" fill="#ff4128"/><path d="m167.953125 319.683594h30.445313v60.890625h-30.445313zm0 0" fill="#ff6337"/><path d="m107.0625 319.683594-15.222656 30.445312 15.222656 30.445313h30.445312v-60.890625zm0 0" fill="#116f97"/><path d="m76.613281 319.683594h30.449219v60.890625h-30.449219zm0 0" fill="#1990c2"/><path d="m91.839844 91.339844-30.449219 15.222656 30.449219 15.222656h30.445312v-30.445312zm0 0" fill="#b9d171"/><path d="m30.945312 91.339844h60.894532v30.445312h-60.894532zm0 0" fill="#d5e3aa"/><path d="m274.515625 258.789062-30.449219 15.226563 30.449219 15.222656h30.445313v-30.449219zm0 0" fill="#808080"/><path d="m.5 258.789062h274.015625v30.449219h-274.015625zm0 0" fill="#999"/><path d="m436.890625 167.453125h-30.445313v121.785156h50.746094v-101.488281c0-11.214844-9.085937-20.296875-20.300781-20.296875zm0 0" fill="#ff4128"/><path d="m406.445312 167.453125h-20.296874c-11.214844 0-20.296876 9.082031-20.296876 20.296875v101.488281h60.890626v-101.488281c0-11.214844-9.082032-20.296875-20.296876-20.296875zm0 0" fill="#ff6337"/><path d="m457.191406 258.789062h-30.449218l14.660156 89.152344c27.734375-4.207031 42.175781-13.035156 42.175781-13.035156-3.835937-50.742188-26.386719-76.117188-26.386719-76.117188zm0 0" fill="#b9d171"/><path d="m339.464844 334.90625s24.855468 15.222656 72.054687 15.222656c11.246094 0 21.207031-.871094 29.882813-2.1875-.324219-63.808594-14.660156-89.152344-14.660156-89.152344h-60.890626s-22.554687 25.375-26.386718 76.117188zm0 0" fill="#d5e3aa"/><path d="m427.546875 10.148438c-2.851563-5.996094-8.945313-10.148438-16.027344-10.148438-7.078125 0-13.171875 4.152344-16.027343 10.148438-9.808594 0-17.757813 7.953124-17.757813 17.761718s7.949219 17.757813 17.757813 17.757813h32.054687c9.808594 0 17.761719-7.949219 17.761719-17.757813s-7.953125-17.761718-17.761719-17.761718zm0 0" fill="#40211d"/><path d="m411.519531 45.667969v91.339843c25.222657 0 45.671875-20.449218 45.671875-45.667968 0-25.222656-20.449218-45.671875-45.671875-45.671875zm0 0" fill="#60312c"/><path d="m426.742188 91.339844c0-25.222656-6.8125-45.671875-15.222657-45.671875-25.222656 0-45.667969 20.449219-45.667969 45.671875 0 25.21875 20.445313 45.667968 45.667969 45.667968 8.410157 0 15.222657-20.449218 15.222657-45.667968zm0 0" fill="#85453d"/></svg>