<svg id="Capa_1" enable-background="new 0 0 504.5 504.5" height="512" viewBox="0 0 504.5 504.5" width="512" xmlns="http://www.w3.org/2000/svg"><g><path d="m158.5 52.6c0-18.35-12.82-33.7-30-37.6l-10 37.6 10 42.4h30z" fill="#808080"/><path d="m98.5 52.6v42.4h30v-80c-17.17 3.9-30 19.25-30 37.6z" fill="#999"/><path d="m128.5 52.5c-4.143 0-7.5 3.357-7.5 7.5v95h15v-95c0-4.143-3.357-7.5-7.5-7.5z" fill="#ffa754"/><path d="m376 155h-15v-40l7.5 10 7.5-10z" fill="#869e47"/><path d="m248.5 45v90c24.853 0 45-20.147 45-45s-20.147-45-45-45z" fill="#85453d"/><path d="m263.5 90c0-24.853-6.716-45-15-45-24.853 0-45 20.147-45 45s20.147 45 45 45c8.284 0 15-20.147 15-45z" fill="#a45e43"/><path d="m276 15c0-8.284-6.716-15-15-15-5.22 0-9.813 2.67-12.5 6.715-2.687-4.045-7.28-6.715-12.5-6.715-8.284 0-15 6.716-15 15-8.284 0-15 6.716-15 15s6.716 15 15 15h55c8.284 0 15-6.716 15-15s-6.716-15-15-15z" fill="#40211d"/><path d="m368.5 125c-24.851 0-45-20.149-45-45 24.851 0 45 20.149 45 45z" fill="#b9d171"/><path d="m413.5 80c0 24.851-20.149 45-45 45 0-24.851 20.149-45 45-45z" fill="#9db55f"/><path d="m113.5 177.5c-4.136 0-7.5-3.364-7.5-7.5s3.364-7.5 7.5-7.5h15c4.143 0 7.499-3.357 7.499-7.5s-3.357-7.5-7.5-7.5h-14.999c-12.406 0-22.5 10.094-22.5 22.5s10.094 22.5 22.5 22.5h75v-15z" fill="#a45e43"/><path d="m383.5 147.5h-15c-4.143 0-7.5 3.357-7.5 7.5s3.357 7.5 7.5 7.5h15c4.136 0 7.5 3.364 7.5 7.5s-3.364 7.5-7.5 7.5h-75v15h75c12.406 0 22.5-10.094 22.5-22.5s-10.094-22.5-22.5-22.5z" fill="#85453d"/><path d="m308.5 165c8.284 0 15 6.716 15 15v20c0 8.284-6.716 15-15 15s-15-6.716-15-15l-15-15h15v-5c0-8.285 6.716-15 15-15z" fill="#ffe2a8"/><path d="m188.5 165c-8.284 0-15 6.716-15 15v20c0 8.284 6.716 15 15 15s15-6.716 15-15l15-15h-15v-5c0-8.285-6.716-15-15-15z" fill="#fff0d3"/><path d="m286 294.665h-15v137.335l15 20z" fill="#85453d"/><path d="m325.87 489.883-17.369-8.79v-49.093h-37.501v49.998c0 3.228 2.066 6.094 5.128 7.115l44.998 15c3.928 1.31 8.177-.814 9.487-4.744 1.31-3.929-.814-8.176-4.743-9.486z" fill="#ff8646"/><path d="m211 294.665v157.335l15-20v-137.335z" fill="#a45e43"/><path d="m171.13 489.883 17.369-5.79v-52.093h37.501v49.998c0 3.228-2.066 6.094-5.128 7.115l-44.998 15c-3.928 1.31-8.177-.814-9.487-4.744-1.31-3.929.814-8.176 4.743-9.486z" fill="#ffa754"/><path d="m256 165h-15l-7.5 10-7.5-10h-2.5c-11.046 0-20 8.954-20 20v47.5l45 37.5 35-60z" fill="#fff0d3"/><path d="m273.5 165h-2.5l-7.5 75 30-7.5v-47.5c0-11.046-8.954-20-20-20z" fill="#ffe2a8"/><path d="m263.5 210h-15v120c5.261 0 10.307-.911 15-2.571v47.571c0 8.284 6.716 15 15 15s15-6.716 15-15v-135c-16.569 0-30-13.432-30-30z" fill="#869e47"/><path d="m241 195v-30h-15v45c0 12.407-10.094 22.5-22.5 22.5v15 127.5c0 8.28 6.72 15 15 15s15-6.72 15-15v-47.571c4.693 1.659 9.739 2.571 15 2.571 8.284 0 15-20.147 15-45v-90z" fill="#9db55f"/><path d="m293.5 247.5c-20.678 0-37.5-16.822-37.5-37.5v-45h15v45c0 12.407 10.094 22.5 22.5 22.5z" fill="#869e47"/></g></svg>